<svg xmlns="http://www.w3.org/2000/svg" viewBox="0 0 24 24">
  <g fill="none">
    <rect width="24" height="24" fill="#039"/>
    <g transform="translate(1.5, 1.5)">
      <path d="M12,12 L12.59,14.42 L15.09,14.42 L13.25,15.91 L13.84,18.33 L12,16.84 L10.16,18.33 L10.75,15.91 L8.91,14.42 L11.41,14.42 Z" fill="#FC0"/>
      <path d="M12,2.33 L12.59,4.75 L15.09,4.75 L13.25,6.25 L13.84,8.67 L12,7.16 L10.16,8.67 L10.75,6.25 L8.91,4.75 L11.41,4.75 Z" fill="#FC0"/>
      <path d="M5.33,7.16 L5.92,9.58 L8.42,9.58 L6.58,11.09 L7.17,13.5 L5.33,12 L3.49,13.5 L4.08,11.09 L2.24,9.58 L4.74,9.58 Z" fill="#FC0"/>
      <path d="M18.67,7.16 L19.26,9.58 L21.76,9.58 L19.92,11.09 L20.51,13.5 L18.67,12 L16.83,13.5 L17.42,11.09 L15.58,9.58 L18.08,9.58 Z" fill="#FC0"/>
      <path d="M17.42,2.91 L15.58,4.42 L16.17,6.84 L14.33,5.33 L12.5,6.84 L13.08,4.42 L11.24,2.91 L13.75,2.91 L14.33,0.5 L14.92,2.91 Z" fill="#FC0"/>
      <path d="M6.58,2.91 L4.74,4.42 L5.33,6.84 L3.49,5.33 L1.65,6.84 L2.24,4.42 L0.4,2.91 L2.9,2.91 L3.49,0.5 L4.08,2.91 Z" fill="#FC0"/>
      <path d="M20.51,6.84 L18.67,5.33 L16.83,6.84 L17.42,4.42 L15.58,2.91 L18.08,2.91 L18.67,0.5 L19.26,2.91 L21.76,2.91 L19.92,4.42 Z" fill="#FC0"/>
      <path d="M7.17,6.84 L5.33,5.33 L3.49,6.84 L4.08,4.42 L2.24,2.91 L4.74,2.91 L5.33,0.5 L5.92,2.91 L8.42,2.91 L6.58,4.42 Z" fill="#FC0"/>
      <path d="M20.51,17.16 L18.67,15.67 L16.83,17.16 L17.42,14.75 L15.58,13.24 L18.08,13.24 L18.67,10.82 L19.26,13.24 L21.76,13.24 L19.92,14.75 Z" fill="#FC0"/>
      <path d="M7.17,17.16 L5.33,15.67 L3.49,17.16 L4.08,14.75 L2.24,13.24 L4.74,13.24 L5.33,10.82 L5.92,13.24 L8.42,13.24 L6.58,14.75 Z" fill="#FC0"/>
      <path d="M14.33,18.67 L12.5,17.16 L10.66,18.67 L11.24,16.25 L9.4,14.75 L11.91,14.75 L12.5,12.33 L13.08,14.75 L15.58,14.75 L13.75,16.25 Z" fill="#FC0"/>
      <path d="M14.33,5.33 L12.5,3.84 L10.66,5.33 L11.24,2.91 L9.4,1.42 L11.91,1.42 L12.5,0 L13.08,1.42 L15.58,1.42 L13.75,2.91 Z" fill="#FC0"/>
    </g>
  </g>
</svg>