<svg xmlns="http://www.w3.org/2000/svg" viewBox="0 0 24 24">
  <g fill="none">
    <circle cx="12" cy="12" r="12" fill="#1A73E8"/>
    <path d="M12,2 C17.52,2 22,6.48 22,12 C22,17.52 17.52,22 12,22 C6.48,22 2,17.52 2,12 C2,6.48 6.48,2 12,2 Z M12,4 C7.58,4 4,7.58 4,12 C4,16.42 7.58,20 12,20 C16.42,20 20,16.42 20,12 C20,7.58 16.42,4 12,4 Z" fill="#FFFFFF"/>
    <path d="M12,4 C13.82,4 15.5,4.65 16.82,5.82 L15.4,7.24 C14.46,6.45 13.27,6 12,6 C8.69,6 6,8.69 6,12 C6,15.31 8.69,18 12,18 C15.31,18 18,15.31 18,12 C18,11.54 17.96,11.08 17.85,10.65 L19.75,8.75 C19.91,9.46 20,10.22 20,11 C20,16.43 15.43,21 10,21 C4.57,21 0,16.43 0,11 C0,5.57 4.57,1 10,1 C11.62,1 13.17,1.41 14.5,2.14 L12,4 Z" fill="#FFFFFF"/>
    <path d="M12,7 C14.76,7 17,9.24 17,12 C17,14.76 14.76,17 12,17 C9.24,17 7,14.76 7,12 C7,9.24 9.24,7 12,7 Z M12,9 C10.34,9 9,10.34 9,12 C9,13.66 10.34,15 12,15 C13.66,15 15,13.66 15,12 C15,10.34 13.66,9 12,9 Z" fill="#FFFFFF"/>
  </g>
</svg>