<svg xmlns="http://www.w3.org/2000/svg" viewBox="0 0 24 24">
  <g fill="none">
    <rect width="24" height="24" fill="#B22234"/>
    <rect y="0" width="24" height="1.846" fill="#FFFFFF"/>
    <rect y="3.692" width="24" height="1.846" fill="#FFFFFF"/>
    <rect y="7.384" width="24" height="1.846" fill="#FFFFFF"/>
    <rect y="11.077" width="24" height="1.846" fill="#FFFFFF"/>
    <rect y="14.769" width="24" height="1.846" fill="#FFFFFF"/>
    <rect y="18.462" width="24" height="1.846" fill="#FFFFFF"/>
    <rect y="22.154" width="24" height="1.846" fill="#FFFFFF"/>
    <rect width="9.6" height="13" fill="#3C3B6E"/>
    <g fill="#FFFFFF">
      <circle cx="1.6" cy="1.08" r="0.5"/>
      <circle cx="3.2" cy="1.08" r="0.5"/>
      <circle cx="4.8" cy="1.08" r="0.5"/>
      <circle cx="6.4" cy="1.08" r="0.5"/>
      <circle cx="8" cy="1.08" r="0.5"/>
      <circle cx="1.6" cy="2.16" r="0.5"/>
      <circle cx="3.2" cy="2.16" r="0.5"/>
      <circle cx="4.8" cy="2.16" r="0.5"/>
      <circle cx="6.4" cy="2.16" r="0.5"/>
      <circle cx="8" cy="2.16" r="0.5"/>
      <circle cx="1.6" cy="3.25" r="0.5"/>
      <circle cx="3.2" cy="3.25" r="0.5"/>
      <circle cx="4.8" cy="3.25" r="0.5"/>
      <circle cx="6.4" cy="3.25" r="0.5"/>
      <circle cx="8" cy="3.25" r="0.5"/>
      <circle cx="1.6" cy="4.33" r="0.5"/>
      <circle cx="3.2" cy="4.33" r="0.5"/>
      <circle cx="4.8" cy="4.33" r="0.5"/>
      <circle cx="6.4" cy="4.33" r="0.5"/>
      <circle cx="8" cy="4.33" r="0.5"/>
      <circle cx="1.6" cy="5.42" r="0.5"/>
      <circle cx="3.2" cy="5.42" r="0.5"/>
      <circle cx="4.8" cy="5.42" r="0.5"/>
      <circle cx="6.4" cy="5.42" r="0.5"/>
      <circle cx="8" cy="5.42" r="0.5"/>
      <circle cx="1.6" cy="6.5" r="0.5"/>
      <circle cx="3.2" cy="6.5" r="0.5"/>
      <circle cx="4.8" cy="6.5" r="0.5"/>
      <circle cx="6.4" cy="6.5" r="0.5"/>
      <circle cx="8" cy="6.5" r="0.5"/>
      <circle cx="1.6" cy="7.58" r="0.5"/>
      <circle cx="3.2" cy="7.58" r="0.5"/>
      <circle cx="4.8" cy="7.58" r="0.5"/>
      <circle cx="6.4" cy="7.58" r="0.5"/>
      <circle cx="8" cy="7.58" r="0.5"/>
      <circle cx="1.6" cy="8.67" r="0.5"/>
      <circle cx="3.2" cy="8.67" r="0.5"/>
      <circle cx="4.8" cy="8.67" r="0.5"/>
      <circle cx="6.4" cy="8.67" r="0.5"/>
      <circle cx="8" cy="8.67" r="0.5"/>
      <circle cx="1.6" cy="9.75" r="0.5"/>
      <circle cx="3.2" cy="9.75" r="0.5"/>
      <circle cx="4.8" cy="9.75" r="0.5"/>
      <circle cx="6.4" cy="9.75" r="0.5"/>
      <circle cx="8" cy="9.75" r="0.5"/>
    </g>
  </g>
</svg>